<?xml version="1.0" encoding="utf-8"?>
<!-- Generator: Adobe Illustrator 16.0.0, SVG Export Plug-In . SVG Version: 6.00 Build 0)  -->
<!DOCTYPE svg PUBLIC "-//W3C//DTD SVG 1.1//EN" "http://www.w3.org/Graphics/SVG/1.1/DTD/svg11.dtd">
<svg version="1.1" id="Layer_1" xmlns="http://www.w3.org/2000/svg" xmlns:xlink="http://www.w3.org/1999/xlink" x="0px" y="0px"
	 width="500px" height="500px" viewBox="0 0 500 500" enable-background="new 0 0 500 500" xml:space="preserve">
<g>
	<polygon fill="#EEBF93" points="222.5,124.06 215.12,124.06 215.12,163.87 180.84,163.87 180.84,250 180.84,286.99 180.84,325.96 
		180.84,330.87 217.58,330.87 220.27,330.87 220.31,369.3 220.31,370.98 265.07,370.98 265.07,331.19 305.85,331.19 305.85,326.27 
		305.85,286.99 305.85,286.95 305.9,286.95 305.9,252.46 305.85,252.46 305.85,250.21 345.73,250.21 345.73,250 345.73,163.87 
		345.73,124.06 	"/>
	<path fill="#0066FF" d="M250,2.5C113.31,2.5,2.5,113.31,2.5,250c0,80.2,38.16,151.49,97.3,196.71v-113.1h43.14v-46.62h37.9V163.87
		v-39.81V80.31h39.57V39.13h127.54v41.18h44.02v43.75h-46.25v126.15h-39.88v2.25h0.05v34.49h-0.05v0.04h37.91v46.62h43.14v122.6
		C453.56,411.86,497.5,336.07,497.5,250C497.5,113.31,386.69,2.5,250,2.5z"/>
	<rect x="220.12" y="331.19" fill="#33C5F3" width="0.19" height="38.11"/>
	<path fill="#333333" d="M343.76,333.61v-46.62h-37.91v39.28v4.91H265.4v39.8h-44.77v-1.69l0.05-38.43l-39.85,0.12v-0.1v-4.92
		v-38.97h-37.9v46.62H99.8v113.11c23.95,18.32,51.34,32.36,81.04,40.98v-0.03c21.64,6.16,45.93,9.83,69.49,9.83
		c19,0,37.75-2.32,55.52-6.38v0.05c29.36-6.77,56.72-18.78,81.05-34.96v-122.6H343.76L343.76,333.61z"/>
	<polygon points="215.12,124.06 222.5,124.06 345.73,124.06 391.97,124.06 391.97,80.31 347.95,80.31 347.95,39.13 220.41,39.13 
		220.41,80.31 180.84,80.31 180.84,124.06 180.84,163.87 215.12,163.87 	"/>
	<rect x="250" y="250" fill="#CB9866" width="55.85" height="36.95"/>
	<rect x="198.19" y="345.33" width="3.07" height="115.94"/>
	<rect x="284.07" y="345.33" width="3.07" height="83.32"/>
	<g>
		<rect x="183.92" y="173.58" fill="#CB9866" width="6.41" height="6.41"/>
		<rect x="192.34" y="173.58" fill="#CB9866" width="6.41" height="6.41"/>
		<rect x="201.02" y="173.58" fill="#CB9866" width="6.41" height="6.41"/>
		<rect x="209.44" y="173.58" fill="#CB9866" width="6.41" height="6.41"/>
		<rect x="183.92" y="166.11" fill="#CB9866" width="6.41" height="6.41"/>
		<rect x="192.34" y="166.11" fill="#CB9866" width="6.41" height="6.41"/>
		<rect x="201.02" y="166.11" fill="#CB9866" width="6.41" height="6.41"/>
		<rect x="209.44" y="166.11" fill="#CB9866" width="6.41" height="6.41"/>
		<rect x="183.92" y="182.1" fill="#CB9866" width="6.41" height="6.41"/>
		<rect x="192.34" y="182.1" fill="#CB9866" width="6.41" height="6.41"/>
		<rect x="201.02" y="182.1" fill="#CB9866" width="6.41" height="6.41"/>
		<rect x="209.44" y="182.1" fill="#CB9866" width="6.41" height="6.41"/>
		<rect x="183.92" y="190.4" fill="#CB9866" width="6.41" height="6.41"/>
		<rect x="192.34" y="190.4" fill="#CB9866" width="6.41" height="6.41"/>
		<rect x="201.02" y="190.4" fill="#CB9866" width="6.41" height="6.41"/>
		<rect x="209.44" y="190.4" fill="#CB9866" width="6.41" height="6.41"/>
		<rect x="183.92" y="198.64" fill="#CB9866" width="6.41" height="6.42"/>
		<rect x="192.34" y="198.64" fill="#CB9866" width="6.41" height="6.42"/>
		<rect x="201.02" y="198.64" fill="#CB9866" width="6.41" height="6.42"/>
		<rect x="209.44" y="198.64" fill="#CB9866" width="6.41" height="6.42"/>
		<rect x="183.92" y="207.16" fill="#CB9866" width="6.41" height="6.42"/>
		<rect x="192.34" y="207.16" fill="#CB9866" width="6.41" height="6.42"/>
		<rect x="201.02" y="207.16" fill="#CB9866" width="6.41" height="6.42"/>
		<rect x="209.44" y="207.16" fill="#CB9866" width="6.41" height="6.42"/>
		<rect x="183.92" y="215.46" fill="#CB9866" width="6.41" height="6.41"/>
		<rect x="192.34" y="215.46" fill="#CB9866" width="6.41" height="6.41"/>
		<rect x="201.02" y="215.46" fill="#CB9866" width="6.41" height="6.41"/>
		<rect x="209.44" y="215.46" fill="#CB9866" width="6.41" height="6.41"/>
		<rect x="183.92" y="224.17" fill="#CB9866" width="6.41" height="6.42"/>
		<rect x="192.34" y="224.17" fill="#CB9866" width="6.41" height="6.42"/>
		<rect x="201.02" y="224.17" fill="#CB9866" width="6.41" height="6.42"/>
		<rect x="209.44" y="224.17" fill="#CB9866" width="6.41" height="6.42"/>
		<rect x="183.92" y="232.69" fill="#CB9866" width="6.41" height="6.42"/>
		<rect x="192.34" y="232.69" fill="#CB9866" width="6.41" height="6.42"/>
		<rect x="201.02" y="232.69" fill="#CB9866" width="6.41" height="6.42"/>
		<rect x="209.44" y="232.69" fill="#CB9866" width="6.41" height="6.42"/>
		<rect x="183.92" y="240.99" fill="#CB9866" width="6.41" height="6.41"/>
		<rect x="192.34" y="240.99" fill="#CB9866" width="6.41" height="6.41"/>
		<rect x="201.02" y="240.99" fill="#CB9866" width="6.41" height="6.41"/>
		<rect x="209.44" y="240.99" fill="#CB9866" width="6.41" height="6.41"/>
		<rect x="285.3" y="215.41" fill="#CB9866" width="6.41" height="6.42"/>
		<rect x="285.3" y="223.83" fill="#CB9866" width="6.41" height="6.42"/>
		<rect x="285.3" y="232.52" fill="#CB9866" width="6.41" height="6.41"/>
		<rect x="285.3" y="240.93" fill="#CB9866" width="6.41" height="6.42"/>
		<rect x="276.78" y="215.41" fill="#CB9866" width="6.42" height="6.42"/>
		<rect x="276.78" y="223.83" fill="#CB9866" width="6.42" height="6.42"/>
		<rect x="276.78" y="232.52" fill="#CB9866" width="6.42" height="6.41"/>
		<rect x="276.78" y="240.93" fill="#CB9866" width="6.42" height="6.42"/>
		<rect x="268.48" y="215.41" fill="#CB9866" width="6.41" height="6.42"/>
		<rect x="268.48" y="223.83" fill="#CB9866" width="6.41" height="6.42"/>
		<rect x="268.48" y="232.52" fill="#CB9866" width="6.41" height="6.41"/>
		<rect x="268.48" y="240.93" fill="#CB9866" width="6.41" height="6.42"/>
		<rect x="260.24" y="215.41" fill="#CB9866" width="6.41" height="6.42"/>
		<rect x="260.24" y="223.83" fill="#CB9866" width="6.41" height="6.42"/>
		<rect x="260.24" y="232.52" fill="#CB9866" width="6.41" height="6.41"/>
		<rect x="260.24" y="240.93" fill="#CB9866" width="6.41" height="6.42"/>
		<rect x="251.72" y="215.41" fill="#CB9866" width="6.41" height="6.42"/>
		<rect x="251.72" y="223.83" fill="#CB9866" width="6.41" height="6.42"/>
		<rect x="251.72" y="232.52" fill="#CB9866" width="6.41" height="6.41"/>
		<rect x="251.72" y="240.93" fill="#CB9866" width="6.41" height="6.42"/>
		<rect x="327.42" y="215.41" fill="#CB9866" width="6.41" height="6.42"/>
		<rect x="327.42" y="223.83" fill="#CB9866" width="6.41" height="6.42"/>
		<rect x="327.42" y="232.52" fill="#CB9866" width="6.41" height="6.41"/>
		<rect x="327.42" y="240.93" fill="#CB9866" width="6.41" height="6.42"/>
		<rect x="336.25" y="215.41" fill="#CB9866" width="6.41" height="6.42"/>
		<rect x="336.25" y="223.83" fill="#CB9866" width="6.41" height="6.42"/>
		<rect x="336.25" y="232.52" fill="#CB9866" width="6.41" height="6.41"/>
		<rect x="336.25" y="240.93" fill="#CB9866" width="6.41" height="6.42"/>
		<rect x="318.9" y="215.41" fill="#CB9866" width="6.41" height="6.42"/>
		<rect x="318.9" y="223.83" fill="#CB9866" width="6.41" height="6.42"/>
		<rect x="318.9" y="232.52" fill="#CB9866" width="6.41" height="6.41"/>
		<rect x="318.9" y="240.93" fill="#CB9866" width="6.41" height="6.42"/>
		<rect x="310.6" y="215.41" fill="#CB9866" width="6.41" height="6.42"/>
		<rect x="310.6" y="223.83" fill="#CB9866" width="6.41" height="6.42"/>
		<rect x="310.6" y="232.52" fill="#CB9866" width="6.41" height="6.41"/>
		<rect x="310.6" y="240.93" fill="#CB9866" width="6.41" height="6.42"/>
		<rect x="302.36" y="215.41" fill="#CB9866" width="6.41" height="6.42"/>
		<rect x="302.36" y="223.83" fill="#CB9866" width="6.41" height="6.42"/>
		<rect x="302.36" y="232.52" fill="#CB9866" width="6.41" height="6.41"/>
		<rect x="302.36" y="240.93" fill="#CB9866" width="6.41" height="6.42"/>
		<rect x="293.84" y="215.41" fill="#CB9866" width="6.41" height="6.42"/>
		<rect x="293.84" y="223.83" fill="#CB9866" width="6.41" height="6.42"/>
		<rect x="293.84" y="232.52" fill="#CB9866" width="6.41" height="6.41"/>
		<rect x="293.84" y="240.93" fill="#CB9866" width="6.41" height="6.42"/>
		<rect x="243.43" y="215.41" fill="#CB9866" width="6.41" height="6.42"/>
		<rect x="243.43" y="223.83" fill="#CB9866" width="6.41" height="6.42"/>
		<rect x="243.43" y="232.52" fill="#CB9866" width="6.41" height="6.41"/>
		<rect x="243.43" y="240.93" fill="#CB9866" width="6.41" height="6.42"/>
		<rect x="234.71" y="215.41" fill="#CB9866" width="6.41" height="6.42"/>
		<rect x="234.71" y="223.83" fill="#CB9866" width="6.41" height="6.42"/>
		<rect x="234.71" y="232.52" fill="#CB9866" width="6.41" height="6.41"/>
		<rect x="234.71" y="240.93" fill="#CB9866" width="6.41" height="6.42"/>
		<rect x="226.19" y="215.41" fill="#CB9866" width="6.41" height="6.42"/>
		<rect x="226.19" y="223.83" fill="#CB9866" width="6.41" height="6.42"/>
		<rect x="226.19" y="232.52" fill="#CB9866" width="6.41" height="6.41"/>
		<rect x="226.19" y="240.93" fill="#CB9866" width="6.41" height="6.42"/>
		<rect x="217.9" y="215.41" fill="#CB9866" width="6.41" height="6.42"/>
		<rect x="217.9" y="223.83" fill="#CB9866" width="6.41" height="6.42"/>
		<rect x="217.9" y="232.52" fill="#CB9866" width="6.41" height="6.41"/>
		<rect x="217.9" y="240.93" fill="#CB9866" width="6.41" height="6.42"/>
	</g>
</g>
</svg>
